<?xml version="1.0" encoding="utf-8"?>
<!-- Generator: Adobe Illustrator 23.0.1, SVG Export Plug-In . SVG Version: 6.00 Build 0)  -->
<svg version="1.1" id="Layer_1" xmlns="http://www.w3.org/2000/svg" xmlns:xlink="http://www.w3.org/1999/xlink" x="0px" y="0px"
	 viewBox="0 0 252.3 67.7" style="enable-background:new 0 0 252.3 67.7;" xml:space="preserve">
<style type="text/css">
	.st0{fill-rule:evenodd;clip-rule:evenodd;fill:#787977;}
	.st1{fill-rule:evenodd;clip-rule:evenodd;fill:#454A96;}
	.st2{fill-rule:evenodd;clip-rule:evenodd;fill:#88B340;}
	.st3{fill-rule:evenodd;clip-rule:evenodd;fill:#ED6E23;}
	.st4{fill-rule:evenodd;clip-rule:evenodd;fill:#F8B816;}
	.st5{fill-rule:evenodd;clip-rule:evenodd;fill:#0371B4;}
	.st6{fill-rule:evenodd;clip-rule:evenodd;fill:#F1B884;}
	.st7{fill-rule:evenodd;clip-rule:evenodd;fill:#434644;}
</style>
<g>
	<path class="st0" d="M9.9,6.3l1.1,8.1c0,0.3,0,0.5-0.2,0.6c-0.2,0.1-0.3,0.2-0.5,0.2c-0.2,0-0.4,0-0.6-0.1
		c-0.2-0.1-0.3-0.2-0.3-0.4L7.5,2.1c0-0.2,0.1-0.4,0.2-0.5c0.1-0.1,0.3-0.2,0.5-0.2c0.2,0,0.4,0,0.6,0C9,1.4,9.2,1.5,9.3,1.7
		l5.7,9.8l3.1-11c0-0.2,0.1-0.3,0.3-0.4C18.5,0,18.7,0,18.9,0c0.2,0,0.4,0.1,0.6,0.2c0.2,0.1,0.3,0.3,0.3,0.5l1.7,12.5
		c0,0.3,0,0.5-0.2,0.6c-0.2,0.1-0.4,0.2-0.6,0.2c-0.2,0-0.4,0-0.6-0.1c-0.2-0.1-0.3-0.2-0.3-0.4l-1.2-8.5l-2.5,8.7
		c0,0.2-0.1,0.3-0.3,0.4c-0.2,0.1-0.3,0.2-0.5,0.2c-0.2,0-0.4,0-0.5-0.1c-0.2-0.1-0.3-0.2-0.4-0.3L9.9,6.3z M9.9,6.3"/>
	<path class="st0" d="M25.6,14l-3.1-7.2c0-0.3,0-0.5,0.2-0.6c0.2-0.2,0.3-0.3,0.5-0.3c0.2,0,0.4,0,0.6,0c0.2,0.1,0.3,0.2,0.4,0.4
		l2.5,5.6l2.4-5.1c0.2-0.2,0.4-0.4,0.6-0.4c0.2,0,0.4,0,0.6,0.2c0.2,0.1,0.3,0.3,0.4,0.5c0.1,0.2,0.1,0.4,0,0.6l-5.1,10.1
		c-0.1,0.3-0.3,0.4-0.5,0.4c-0.2,0-0.4,0-0.6-0.1c-0.2-0.1-0.3-0.2-0.4-0.4c-0.1-0.2-0.1-0.4,0-0.5L25.6,14z M25.6,14"/>
	<path class="st1" d="M26,27.9c0.2,0.6,0,1.2-0.4,1.6c-0.4,0.4-0.9,0.7-1.5,0.8c-0.6,0.1-1.1,0.1-1.7-0.1C22,30,21.6,29.6,21.6,29
		c-0.1-1.3-0.4-2.3-0.8-3.1c-0.5-0.8-1-1.4-1.6-1.9c-0.6-0.5-1.2-0.8-1.8-1c-0.6-0.2-1.1-0.3-1.3-0.4c-1.1-0.3-2-0.3-2.9-0.2
		c-0.9,0.1-1.7,0.4-2.4,0.8c-0.7,0.4-1.3,0.9-1.7,1.4c-0.5,0.6-0.8,1.2-0.9,1.8c-0.3,1.4-0.3,2.5,0,3.4c0.3,0.9,0.9,1.7,1.7,2.5
		c0.8,0.7,1.8,1.4,2.9,2c1.2,0.6,2.4,1.3,3.6,2c1.2,0.8,2.4,1.5,3.6,2.4c1.1,0.8,2.1,1.8,2.9,2.9c0.8,1.1,1.3,2.3,1.6,3.7
		c0.3,1.4,0.2,3-0.3,4.8c-0.5,1.9-1.4,3.5-2.5,4.7c-1.2,1.2-2.5,2.1-4,2.6c-1.5,0.6-3.1,0.8-4.8,0.8c-1.7,0-3.3-0.3-4.8-0.9
		c-2.1-0.7-3.8-1.8-5.3-3.4c-1.5-1.5-2.4-3.4-2.6-5.6c0.1-0.8,0.4-1.3,0.9-1.8C1.4,46.2,2,46,2.6,45.9c0.6-0.1,1.1,0,1.6,0.2
		c0.5,0.2,0.7,0.7,0.7,1.3c0,1.5,0.5,2.8,1.6,3.8s2.4,1.7,3.8,2.1c0.9,0.2,1.8,0.4,2.8,0.4c0.9,0,1.8-0.2,2.6-0.5
		c0.8-0.3,1.5-0.8,2.2-1.5c0.6-0.7,1.1-1.5,1.4-2.6c0.3-1.2,0.4-2.2,0.2-3.1c-0.2-0.9-0.6-1.7-1.2-2.4c-0.6-0.7-1.4-1.4-2.3-2
		c-0.9-0.6-1.9-1.2-3-1.9c-1.3-0.8-2.6-1.5-4-2.4c-1.3-0.8-2.5-1.8-3.5-2.9c-1-1.1-1.7-2.4-2.1-3.8C3,29.2,3,27.5,3.5,25.5
		c0.4-1.6,1.1-2.9,2-4c0.9-1.1,2-1.9,3.2-2.5c1.2-0.6,2.5-1,3.9-1.1c1.4-0.1,2.8-0.1,4.1,0.2c0.8,0.2,1.6,0.5,2.6,0.9
		c1,0.4,1.9,1,2.8,1.8c0.9,0.8,1.7,1.8,2.4,2.9C25.3,24.8,25.8,26.3,26,27.9L26,27.9z M26,27.9"/>
	<path class="st2" d="M44.3,46.4c0.2-0.6,0.6-1,1.2-1.1c0.6-0.2,1.1-0.2,1.7,0c0.5,0.2,1,0.5,1.4,1c0.4,0.5,0.4,1.1,0.2,1.8
		c-0.6,1.9-1.6,3.6-3,4.9c-1.4,1.4-3.2,2.3-5.2,2.7c-1.5,0.3-3,0.4-4.4,0c-1.4-0.3-2.7-0.9-3.9-1.7c-1.2-0.8-2.2-1.8-3.1-3.1
		c-0.9-1.2-1.5-2.6-1.8-4c-0.3-1.5-0.4-3-0.1-4.5c0.3-1.5,0.8-2.8,1.5-4c0.8-1.2,1.7-2.3,2.9-3.2c1.1-0.9,2.5-1.5,4-1.8
		c2.5-0.5,4.7-0.3,6.5,0.5c1.8,0.8,3.1,1.8,4,3.2c0.3,0.5,0.4,0.9,0.2,1.5c-0.2,0.5-0.5,0.9-1,1.3c-0.5,0.4-1,0.6-1.5,0.7
		c-0.5,0.1-0.9,0-1.2-0.4c-0.8-1.1-1.8-1.7-2.8-1.9c-1-0.2-2.1-0.2-3.2,0.1c-0.8,0.2-1.6,0.5-2.3,1c-0.7,0.5-1.2,1.1-1.7,1.8
		c-0.4,0.7-0.7,1.5-0.9,2.4c-0.2,0.9-0.1,1.7,0.1,2.6c0.2,0.8,0.5,1.6,1,2.3c0.5,0.7,1.1,1.3,1.8,1.8c0.7,0.5,1.5,0.8,2.3,1
		c0.8,0.2,1.7,0.2,2.5,0c1.2-0.3,2.2-0.8,2.9-1.5C43.1,49.1,43.7,48,44.3,46.4L44.3,46.4z M44.3,46.4"/>
	<path class="st3" d="M64.9,57.3c0.4-3.6,0.5-6.4,0.5-8.6c-0.1-2.1-0.3-3.8-0.6-4.9c-0.4-1.1-0.8-1.9-1.3-2.3
		c-0.5-0.4-1-0.6-1.5-0.6c-0.8-0.1-1.7,0-2.5,0.3c-0.8,0.3-1.5,0.7-2.1,1.3c-0.6,0.6-1.1,1.2-1.6,2c-0.4,0.8-0.7,1.6-0.8,2.5
		l-0.6,8.9c-0.1,0.7-0.4,1.2-0.9,1.6c-0.5,0.4-1.1,0.6-1.6,0.6c-0.6,0-1.1-0.2-1.6-0.5c-0.5-0.4-0.8-1-0.9-1.9l2.9-34.8
		c0-0.8,0.3-1.3,0.8-1.6c0.5-0.3,1.1-0.4,1.6-0.3c0.6,0.1,1.1,0.3,1.5,0.7c0.5,0.4,0.7,0.8,0.6,1.3l-1.3,16.9c1-0.6,2-1,3.1-1.3
		c1.1-0.3,2.3-0.4,3.5-0.4c2.2,0.2,3.8,0.8,5,2c1.1,1.1,1.9,2.6,2.4,4.5c0.4,1.9,0.6,4.1,0.6,6.6c-0.1,2.5-0.2,5.3-0.5,8.3
		c-0.1,0.8-0.4,1.3-0.9,1.5c-0.5,0.3-1.1,0.4-1.6,0.3c-0.6-0.1-1.1-0.3-1.5-0.7C65,58.2,64.8,57.8,64.9,57.3L64.9,57.3z M64.9,57.3"
		/>
	<path class="st4" d="M73.1,50.8c-0.8-1.3-1.3-2.7-1.5-4.1c-0.2-1.5-0.2-2.9,0.1-4.3c0.3-1.4,0.9-2.7,1.7-3.9c0.8-1.2,1.9-2.2,3.2-3
		c1.3-0.8,2.7-1.3,4.1-1.5c1.4-0.2,2.9-0.1,4.3,0.2c1.4,0.4,2.7,1,3.9,1.8c1.2,0.9,2.2,1.9,3,3.2c0.8,1.3,1.3,2.7,1.6,4.2
		c0.2,1.5,0.2,2.9-0.1,4.4c-0.3,1.4-0.8,2.7-1.7,4c-0.8,1.2-1.9,2.2-3.2,3c-1.3,0.8-2.7,1.3-4.1,1.5c-1.5,0.2-2.9,0.1-4.3-0.2
		c-1.4-0.4-2.7-1-3.9-1.8C74.9,53.2,73.9,52.1,73.1,50.8L73.1,50.8z M77.1,48.4c0.5,0.8,1,1.4,1.7,1.9c0.7,0.5,1.5,0.9,2.3,1.1
		c0.8,0.2,1.7,0.3,2.5,0.2c0.8-0.1,1.6-0.4,2.4-0.8c0.7-0.5,1.3-1.1,1.8-1.8c0.5-0.7,0.8-1.5,1-2.3c0.2-0.8,0.2-1.6,0.1-2.5
		c-0.2-0.8-0.5-1.6-0.9-2.4c-0.5-0.8-1-1.4-1.7-1.9c-0.7-0.5-1.4-0.9-2.3-1c-0.8-0.2-1.7-0.2-2.5-0.1c-0.8,0.1-1.6,0.4-2.3,0.9
		c-0.8,0.5-1.4,1-1.8,1.7c-0.5,0.7-0.8,1.5-1,2.3c-0.2,0.8-0.2,1.6-0.1,2.5C76.3,46.9,76.6,47.7,77.1,48.4L77.1,48.4z M77.1,48.4"/>
	<path class="st5" d="M96.7,50.8c-0.8-1.3-1.3-2.7-1.5-4.1c-0.2-1.5-0.2-2.9,0.1-4.3c0.3-1.4,0.8-2.7,1.7-3.9c0.8-1.2,1.9-2.2,3.2-3
		c1.3-0.8,2.7-1.3,4.1-1.5c1.5-0.2,2.9-0.1,4.3,0.2c1.4,0.4,2.7,1,3.9,1.8c1.2,0.9,2.2,1.9,3,3.2c0.8,1.3,1.3,2.7,1.6,4.2
		c0.3,1.5,0.2,2.9-0.1,4.4c-0.3,1.4-0.9,2.7-1.7,4c-0.8,1.2-1.9,2.2-3.2,3c-1.3,0.8-2.7,1.3-4.1,1.5c-1.4,0.2-2.9,0.1-4.3-0.2
		c-1.4-0.4-2.7-1-3.9-1.8C98.5,53.2,97.5,52.1,96.7,50.8L96.7,50.8z M100.6,48.4c0.5,0.8,1,1.4,1.7,1.9c0.7,0.5,1.4,0.9,2.3,1.1
		c0.8,0.2,1.6,0.3,2.5,0.2c0.8-0.1,1.6-0.4,2.4-0.8c0.7-0.5,1.3-1.1,1.8-1.8c0.5-0.7,0.8-1.5,1-2.3c0.2-0.8,0.2-1.6,0.1-2.5
		c-0.1-0.8-0.4-1.6-0.9-2.4c-0.5-0.8-1-1.4-1.7-1.9c-0.7-0.5-1.5-0.9-2.3-1c-0.8-0.2-1.6-0.2-2.5-0.1c-0.8,0.1-1.6,0.4-2.3,0.9
		c-0.8,0.5-1.4,1-1.8,1.7c-0.5,0.7-0.8,1.5-1,2.3c-0.2,0.8-0.2,1.6-0.1,2.5C99.9,46.9,100.2,47.7,100.6,48.4L100.6,48.4z
		 M100.6,48.4"/>
	<path class="st2" d="M142.5,22.3c0-0.2,0.1-0.5,0.2-0.9c0.1-0.4,0.3-0.9,0.6-1.3c0.3-0.5,0.7-0.9,1.3-1.3c0.5-0.4,1.2-0.6,2.1-0.8
		c3.7-0.5,6.8-0.4,9.5,0.6c2.6,0.9,4.8,2.4,6.5,4.3c1.7,2,2.9,4.3,3.7,6.9c0.8,2.7,1.3,5.4,1.4,8.3c0.1,2.5-0.2,4.9-0.7,7.2
		c-0.6,2.3-1.6,4.3-3,6.1c-1.4,1.8-3.4,3.2-5.8,4.3c-2.4,1.1-5.5,1.7-9.1,1.8c-0.6,0-1.2,0-1.7,0c-0.6,0-1.1-0.1-1.5-0.3
		c-0.4-0.2-0.8-0.6-1.1-1.2c-0.3-0.6-0.4-1.5-0.5-2.7L142.5,22.3z M148.8,52.8c2.7,0.1,4.9-0.2,6.8-1c1.8-0.7,3.3-1.7,4.3-3
		c1.1-1.3,1.8-2.8,2.2-4.6c0.4-1.8,0.6-3.7,0.5-5.8c-0.1-2.3-0.4-4.5-0.9-6.6c-0.5-2.1-1.4-3.9-2.6-5.5c-1.2-1.5-2.8-2.6-4.8-3.3
		c-2-0.7-4.5-0.8-7.5-0.2L148.8,52.8z M148.8,52.8"/>
	<path class="st5" d="M171.6,30.1c0.2-0.7,0.6-1.2,1.2-1.4c0.6-0.2,1.2-0.2,1.8-0.1c0.6,0.2,1.1,0.4,1.5,0.8
		c0.4,0.4,0.5,0.8,0.4,1.3l-2.3,23.4c-0.1,0.8-0.4,1.3-0.9,1.6c-0.5,0.3-1.1,0.3-1.7,0.2c-0.6-0.1-1.1-0.3-1.5-0.7
		c-0.4-0.4-0.6-0.8-0.6-1.3L171.6,30.1z M171.6,30.1"/>
	<path class="st3" d="M194.2,53.8c-1.1,0.5-2.1,0.8-3.3,0.8c-1.1,0.1-2.3,0-3.5-0.3c-1.5-0.4-2.8-1-3.9-2c-1.1-0.9-2.1-2-2.8-3.3
		c-0.7-1.3-1.1-2.6-1.4-4.1c-0.2-1.5-0.1-3,0.3-4.4c0.4-1.5,1-2.8,1.9-4c0.9-1.2,2-2.1,3.2-2.9c1.2-0.7,2.6-1.2,4-1.5
		c1.5-0.3,2.9-0.2,4.4,0.2c1.2,0.2,2.2,0.7,3.1,1.3c0.9,0.6,1.7,1.3,2.4,2.2c0.4-0.6,0.9-1,1.5-1.1c0.6-0.1,1.2,0,1.8,0.2
		c0.6,0.2,1,0.6,1.4,1c0.4,0.5,0.4,0.9,0.2,1.4l-4.9,18.3c-0.2,0.8-0.6,1.2-1.1,1.4c-0.5,0.2-1.1,0.2-1.7,0c-0.6-0.2-1-0.5-1.4-0.9
		c-0.4-0.4-0.5-0.9-0.4-1.3L194.2,53.8z M184.1,41.7c-0.2,0.9-0.3,1.8-0.2,2.6c0.1,0.9,0.4,1.7,0.8,2.4c0.4,0.7,0.9,1.4,1.6,1.9
		c0.6,0.5,1.4,0.9,2.2,1.1c0.8,0.2,1.7,0.2,2.5,0.1c0.8-0.2,1.6-0.4,2.4-0.9c0.7-0.4,1.4-1,1.9-1.7c0.5-0.7,0.9-1.4,1.1-2.3
		c0.2-0.8,0.3-1.7,0.2-2.6c-0.1-0.9-0.4-1.7-0.8-2.4c-0.4-0.7-1-1.4-1.6-1.9c-0.6-0.5-1.4-0.9-2.2-1.2c-0.8-0.2-1.7-0.2-2.5-0.1
		c-0.8,0.2-1.6,0.4-2.3,0.9c-0.7,0.4-1.3,1-1.9,1.7C184.7,40.1,184.3,40.8,184.1,41.7L184.1,41.7z M184.1,41.7"/>
	<path class="st4" d="M223.2,41.8c-0.6-0.6-1.3-1.2-2-1.7c-0.8-0.5-1.6-0.8-2.5-0.9c-0.8,0-1.6,0.1-2.4,0.4
		c-0.8,0.3-1.5,0.8-2.1,1.4c-0.6,0.6-1.1,1.3-1.5,2c-0.4,0.8-0.6,1.6-0.6,2.5l-0.4,8.9c-0.1,0.7-0.4,1.2-0.9,1.6
		c-0.5,0.4-1,0.6-1.6,0.7c-0.6,0-1.1-0.1-1.6-0.5c-0.5-0.4-0.8-1-0.9-1.9l1.1-18.9c0-0.8,0.3-1.3,0.8-1.6c0.5-0.3,1.1-0.4,1.6-0.3
		c0.6,0.1,1.1,0.3,1.6,0.6c0.5,0.3,0.7,0.8,0.6,1.3l0.1,1c1-0.6,2-1.1,3.1-1.5c1.1-0.4,2.2-0.5,3.4-0.4c1.8,0.1,3.4,0.5,4.8,1.3
		c1.4,0.8,2.6,1.9,3.4,3.4c0.3,0.4,0.3,0.9,0.2,1.4c-0.2,0.5-0.4,1-0.9,1.4c-0.4,0.4-0.9,0.6-1.5,0.6
		C224.4,42.7,223.8,42.4,223.2,41.8L223.2,41.8z M223.2,41.8"/>
	<path class="st5" d="M237.9,56.3l-8.7-20.2c-0.1-0.8,0.1-1.4,0.5-1.8c0.4-0.5,0.9-0.8,1.5-0.9c0.6-0.1,1.1-0.1,1.7,0.1
		c0.6,0.2,0.9,0.5,1.1,1.1l6.9,15.5l6.8-14.1c0.5-0.6,1-1,1.6-1c0.6,0,1.2,0.1,1.7,0.4c0.5,0.3,0.9,0.8,1.1,1.3
		c0.2,0.5,0.2,1.1-0.1,1.6L238,66.6c-0.3,0.7-0.8,1.1-1.4,1.1c-0.6,0-1.1-0.1-1.6-0.4c-0.5-0.3-0.9-0.7-1.2-1.2
		c-0.3-0.5-0.3-1-0.1-1.4L237.9,56.3z M237.9,56.3"/>
	<g>
		<path class="st6" d="M123.3,22.5l-3.6-10.1L118.4,23l0.3,3.2l4.9-0.5L123.3,22.5z M123.3,22.5"/>
		<path class="st7" d="M119.8,12.4l-0.5,4.1l1.9-0.2L119.8,12.4z M119.8,12.4"/>
		<path class="st3" d="M126.7,53.7l-2.5-23.3l-0.1-0.7l-0.4-4.2h0l-0.3-3c-0.7,0.1-1.3-0.4-1.4-1.1c0.1,0.7-0.4,1.3-1.1,1.4
			c-0.7,0.1-1.3-0.4-1.4-1.1c0.1,0.7-0.4,1.3-1.1,1.4l0.3,2.5h0l0.2,1.7l0.3,3.1h0l2.8,24.2c0,0.5,0.3,0.9,0.9,1.2
			c0.5,0.3,1.1,0.4,1.7,0.3c0.6,0,1.1-0.2,1.5-0.6C126.6,55.1,126.7,54.5,126.7,53.7L126.7,53.7z M126.7,53.7"/>
	</g>
	<path class="st2" d="M173.4,22.2c0.5-0.5,1.1-0.8,1.7-0.8c0.7,0,1.2,0.2,1.7,0.7c0.5,0.5,0.8,1.1,0.9,1.7c0,0.7-0.2,1.3-0.6,1.8
		c-0.5,0.5-1.1,0.8-1.8,0.8c-0.7,0-1.3-0.2-1.8-0.7c-0.5-0.5-0.8-1.1-0.8-1.7C172.7,23.3,172.9,22.8,173.4,22.2L173.4,22.2z
		 M173.4,22.2"/>
	<path class="st2" d="M175,10c-0.9,0-1.6,0.7-1.5,1.6c0,0.9,0.7,1.6,1.6,1.5c6-0.1,10.9,4.7,11,10.6c0,0.4,0.2,0.8,0.5,1.1
		c0.3,0.3,0.7,0.4,1.1,0.4c0.9,0,1.5-0.7,1.5-1.6C189.1,16,182.7,9.8,175,10L175,10z M175,10"/>
	<path class="st2" d="M175.1,16c-0.9,0-1.6,0.7-1.5,1.6c0,0.9,0.7,1.5,1.6,1.5c2.7-0.1,4.9,2.1,4.9,4.7c0,0.4,0.2,0.8,0.5,1.1
		c0.3,0.3,0.7,0.4,1.1,0.4c0.9,0,1.5-0.7,1.5-1.6C183.2,19.4,179.5,15.9,175.1,16L175.1,16z M175.1,16"/>
	<path class="st2" d="M195.3,23.6c-0.2-11-9.4-19.9-20.4-19.7c-0.9,0-1.5,0.7-1.5,1.6c0,0.9,0.7,1.5,1.6,1.5
		c9.3-0.2,17.1,7.2,17.2,16.6c0,0.4,0.2,0.8,0.5,1.1c0.3,0.3,0.7,0.4,1.1,0.4C194.6,25.1,195.3,24.4,195.3,23.6L195.3,23.6z
		 M195.3,23.6"/>
</g>
</svg>
