<?xml version="1.0" encoding="UTF-8"?>
<svg width="189px" height="84px" viewBox="0 0 189 84" version="1.1" xmlns="http://www.w3.org/2000/svg" xmlns:xlink="http://www.w3.org/1999/xlink">
    <title>logo</title>
    <defs>
        <filter x="-7.9%" y="-20.7%" width="115.7%" height="141.4%" filterUnits="objectBoundingBox" id="filter-1">
            <feOffset dx="3" dy="5" in="SourceAlpha" result="shadowOffsetOuter1"></feOffset>
            <feGaussianBlur stdDeviation="0.75" in="shadowOffsetOuter1" result="shadowBlurOuter1"></feGaussianBlur>
            <feColorMatrix values="0 0 0 0 0   0 0 0 0 0   0 0 0 0 0  0 0 0 0.06 0" type="matrix" in="shadowBlurOuter1" result="shadowMatrixOuter1"></feColorMatrix>
            <feMerge>
                <feMergeNode in="shadowMatrixOuter1"></feMergeNode>
                <feMergeNode in="SourceGraphic"></feMergeNode>
            </feMerge>
        </filter>
    </defs>
    <g id="models" stroke="none" stroke-width="1" fill="none" fill-rule="evenodd">
        <g id="Desktop-HD" transform="translate(-56.000000, -48.000000)" fill-rule="nonzero">
            <g id="logo" filter="url(#filter-1)" transform="translate(66.000000, 58.000000)">
                <path d="M41.035,50.462 C41.035,45.789 37.226,42.001 32.528,42.001 C27.829,42.001 24.021,45.789 24.021,50.462 C24.021,55.135 24.021,64.001 24.021,64.001 L32.528,55.539 L41.035,64.001 C41.035,64.001 41.035,55.135 41.035,50.462 Z" id="Path" fill="#DF88FF"></path>
                <path d="M20.231,48.793 C24.287,46.453 25.676,41.271 23.334,37.218 C20.993,33.166 15.806,31.778 11.75,34.117 C7.694,36.457 0,40.896 0,40.896 L11.584,43.997 L8.48,55.571 C8.48,55.571 16.175,51.132 20.231,48.793 Z" id="Path" fill="#88A6FF"></path>
                <path d="M11.73,29.9 C15.779,32.235 20.956,30.849 23.294,26.804 C25.631,22.758 24.244,17.585 20.195,15.25 C16.146,12.914 8.465,8.484 8.465,8.484 L11.564,20.037 L0,23.133 C0,23.133 7.681,27.564 11.73,29.9 Z" id="Path" fill="#88FFD6"></path>
                <path d="M24.021,13.539 C24.021,18.212 27.829,22.001 32.528,22.001 C37.226,22.001 41.035,18.212 41.035,13.539 C41.035,8.866 41.035,-1.77635684e-15 41.035,-1.77635684e-15 L32.528,8.462 L24.021,-1.77635684e-15 C24.021,-1.77635684e-15 24.021,8.866 24.021,13.539 Z" id="Path" fill="#FFE888"></path>
                <path d="M44.529,15.804 C40.609,18.051 39.267,23.027 41.53,26.92 C43.792,30.811 48.804,32.145 52.724,29.898 C56.643,27.651 64.079,23.388 64.079,23.388 L52.885,20.41 L55.884,9.294 C55.884,9.294 48.448,13.556 44.529,15.804 Z" id="Path" fill="#FF8888"></path>
                <path d="M52.722,34.066 C48.821,31.829 43.831,33.156 41.579,37.03 C39.326,40.905 40.663,45.859 44.565,48.096 C48.466,50.333 55.868,54.576 55.868,54.576 L52.882,43.511 L64.025,40.546 C64.025,40.546 56.624,36.302 52.722,34.066 Z" id="Path" fill="#CBFF88"></path>
                <path d="M81.234,28.743 C81.0779992,28.534999 81,28.2750016 81,27.963 C81,27.5123311 81.2253311,27.1310016 81.676,26.819 C81.9186679,26.6629992 82.1699987,26.585 82.43,26.585 C82.7940018,26.585 83.140665,26.749665 83.47,27.079 C83.9900026,27.616336 84.5316639,28.0149987 85.095,28.275 C85.6583362,28.5350013 86.3386627,28.665 87.136,28.665 C88.4880068,28.6129997 89.164,28.1016715 89.164,27.131 C89.164,26.6283308 88.9343356,26.2470013 88.475,25.987 C88.0615979,25.7529988 87.4411135,25.5190008 86.6135311,25.2850003 L86.33,25.207 C85.3246616,24.9296653 84.5056698,24.6523347 83.873,24.375 C83.2403302,24.0976653 82.6943356,23.6773361 82.235,23.114 C81.7756644,22.5506638 81.546,21.7923381 81.546,20.839 C81.546,20.0069958 81.784331,19.2833364 82.261,18.668 C82.737669,18.0526636 83.3616628,17.5760017 84.133,17.238 C84.9043372,16.8999983 85.723329,16.731 86.59,16.731 C87.4740044,16.731 88.3579956,16.895665 89.242,17.225 C90.1260044,17.554335 90.8193308,18.0396635 91.322,18.681 C91.5473345,18.9583347 91.66,19.2703316 91.66,19.617 C91.66,20.0156687 91.495335,20.3449987 91.166,20.605 C90.9233321,20.7956676 90.6460016,20.891 90.334,20.891 C89.9526648,20.891 89.6406679,20.7696679 89.398,20.527 C89.0859984,20.1456648 88.6830025,19.8423345 88.189,19.617 C87.6949975,19.3916655 87.1360031,19.279 86.512,19.279 C85.1946601,19.279 84.536,19.7556619 84.536,20.709 C84.536,21.0903352 84.6573321,21.3979988 84.9,21.632 C85.1426679,21.8660012 85.4503315,22.0479993 85.823,22.178 L86.1309378,22.2811876 C86.4673123,22.3900625 86.8889975,22.5159993 87.396,22.659 C88.3320047,22.9190013 89.1119969,23.1876653 89.736,23.465 C90.3600031,23.7423347 90.8886645,24.1669971 91.322,24.739 C91.7553355,25.3110029 91.972,26.0649953 91.972,27.001 C91.972,27.8503376 91.7206692,28.5913302 91.218,29.224 C90.7153308,29.8566698 90.0696706,30.337665 89.281,30.667 C88.4923294,30.996335 87.6820042,31.161 86.85,31.161 C85.7059943,31.161 84.6400049,30.9703352 83.652,30.589 C82.6639951,30.2076648 81.8580031,29.5923376 81.234,28.743 Z M110.614,16.731 C112.330009,16.731 113.51733,17.2553281 114.176,18.304 C114.83467,19.3526719 115.164,20.8043241 115.164,22.659 L115.164,29.315 C115.164,29.7656689 115.016668,30.1426651 114.722,30.446 C114.427332,30.7493349 114.054669,30.901 113.604,30.901 C113.153331,30.901 112.780668,30.7493349 112.486,30.446 C112.191332,30.1426651 112.044,29.7656689 112.044,29.315 L112.044,22.659 C112.044,21.7056619 111.857669,20.9560027 111.485,20.41 C111.112331,19.8639973 110.458005,19.591 109.522,19.591 C108.551328,19.591 107.793003,19.8813304 107.247,20.462 C106.700997,21.0426696 106.428,21.7749956 106.428,22.659 L106.428,29.315 C106.428,29.7656689 106.280668,30.1426651 105.986,30.446 C105.691332,30.7493349 105.318669,30.901 104.868,30.901 C104.417331,30.901 104.044668,30.7493349 103.75,30.446 C103.455332,30.1426651 103.308,29.7656689 103.308,29.315 L103.308,22.659 C103.308,21.7056619 103.121669,20.9560027 102.749,20.41 C102.376331,19.8639973 101.722005,19.591 100.786,19.591 C99.8153285,19.591 99.0570027,19.8813304 98.511,20.462 C97.9649973,21.0426696 97.692,21.7749956 97.692,22.659 L97.692,29.315 C97.692,29.7656689 97.5446681,30.1426651 97.25,30.446 C96.9553319,30.7493349 96.5826689,30.901 96.132,30.901 C95.6813311,30.901 95.3086681,30.7493349 95.014,30.446 C94.7193319,30.1426651 94.572,29.7656689 94.572,29.315 L94.572,18.577 C94.572,18.1263311 94.7193319,17.7493349 95.014,17.446 C95.3086681,17.1426651 95.6813311,16.991 96.132,16.991 C96.5826689,16.991 96.9553319,17.1426651 97.25,17.446 C97.5446681,17.7493349 97.692,18.1263311 97.692,18.577 L97.692,18.993 C98.1600023,18.3689969 98.7536631,17.8360022 99.473,17.394 C100.192337,16.9519978 100.993996,16.731 101.878,16.731 C104.062011,16.731 105.45733,17.6843238 106.064,19.591 C106.462669,18.8629964 107.064996,18.2043363 107.871,17.615 C108.677004,17.0256637 109.591328,16.731 110.614,16.731 Z M129.802,16.731 C130.252669,16.731 130.625332,16.8783319 130.92,17.173 C131.214668,17.4676681 131.362,17.8489977 131.362,18.317 L131.362,29.315 C131.362,29.7656689 131.214668,30.1426651 130.92,30.446 C130.625332,30.7493349 130.252669,30.901 129.802,30.901 C129.351331,30.901 128.983001,30.7536681 128.697,30.459 C128.410999,30.1643319 128.259333,29.7916689 128.242,29.341 C127.808664,29.8436692 127.22367,30.2726649 126.487,30.628 C125.75033,30.9833351 124.974671,31.161 124.16,31.161 C122.963994,31.161 121.880672,30.8533364 120.91,30.238 C119.939328,29.6226636 119.172336,28.7690055 118.609,27.677 C118.045664,26.5849945 117.764,25.3456736 117.764,23.959 C117.764,22.5723264 118.041331,21.3286722 118.596,20.228 C119.150669,19.1273278 119.908995,18.2693364 120.871,17.654 C121.833005,17.0386636 122.894661,16.731 124.056,16.731 C124.888004,16.731 125.667996,16.8826651 126.396,17.186 C127.124004,17.4893348 127.739331,17.8749977 128.242,18.343 L128.242,18.317 C128.242,17.8663311 128.389332,17.4893348 128.684,17.186 C128.978668,16.8826651 129.351331,16.731 129.802,16.731 Z M124.55,28.301 C125.676672,28.301 126.59533,27.8893374 127.306,27.066 C128.01667,26.2426625 128.372,25.2070062 128.372,23.959 C128.372,22.7109938 128.01667,21.6710042 127.306,20.839 C126.59533,20.0069958 125.676672,19.591 124.55,19.591 C123.440661,19.591 122.53067,20.0069958 121.82,20.839 C121.10933,21.6710042 120.754,22.7109938 120.754,23.959 C120.754,25.2070062 121.104996,26.2426625 121.807,27.066 C122.509004,27.8893374 123.423328,28.301 124.55,28.301 Z M141.97,16.731 C142.490003,16.731 142.927665,16.8783319 143.283,17.173 C143.638335,17.4676681 143.816,17.8143313 143.816,18.213 C143.816,18.750336 143.677335,19.153332 143.4,19.422 C143.122665,19.690668 142.793335,19.825 142.412,19.825 C142.203999,19.825 141.973814,19.7861737 141.721441,19.7085202 L141.4344,19.61388 C141.372,19.5951601 141.286201,19.5702002 141.177,19.539 C140.994999,19.4869997 140.800001,19.461 140.592,19.461 C140.141331,19.461 139.708002,19.5996653 139.292,19.877 C138.875998,20.1543347 138.533668,20.5746638 138.265,21.138 C137.996332,21.7013361 137.862,22.3729961 137.862,23.153 L137.862,29.315 C137.862,29.7656689 137.714668,30.1426651 137.42,30.446 C137.125332,30.7493349 136.752669,30.901 136.302,30.901 C135.851331,30.901 135.478668,30.7493349 135.184,30.446 C134.889332,30.1426651 134.742,29.7656689 134.742,29.315 L134.742,18.577 C134.742,18.1263311 134.889332,17.7493349 135.184,17.446 C135.478668,17.1426651 135.851331,16.991 136.302,16.991 C136.752669,16.991 137.125332,17.1426651 137.42,17.446 C137.714668,17.7493349 137.862,18.1263311 137.862,18.577 L137.862,18.915 C138.260669,18.2043298 138.832663,17.6626685 139.578,17.29 C140.323337,16.9173315 141.120662,16.731 141.97,16.731 Z M152.734,27.963 C152.976668,27.963 153.197666,28.0799988 153.397,28.314 C153.596334,28.5480012 153.696,28.8556648 153.696,29.237 C153.696,29.7050023 153.440336,30.0993317 152.929,30.42 C152.417664,30.7406683 151.841337,30.901 151.2,30.901 C150.125328,30.901 149.21967,30.6713356 148.483,30.212 C147.74633,29.7526644 147.378,28.7776741 147.378,27.287 L147.378,20.111 L146.182,20.111 C145.765998,20.111 145.419335,19.9723347 145.142,19.695 C144.864665,19.4176653 144.726,19.0710021 144.726,18.655 C144.726,18.2563313 144.864665,17.922668 145.142,17.654 C145.419335,17.385332 145.765998,17.251 146.182,17.251 L147.378,17.251 L147.378,15.587 C147.378,15.1363311 147.529665,14.7593348 147.833,14.456 C148.136335,14.1526651 148.513331,14.001 148.964,14.001 C149.397336,14.001 149.761332,14.1526651 150.056,14.456 C150.350668,14.7593348 150.498,15.1363311 150.498,15.587 L150.498,17.251 L152.344,17.251 C152.760002,17.251 153.106665,17.3896653 153.384,17.667 C153.661335,17.9443347 153.8,18.2909979 153.8,18.707 C153.8,19.1056687 153.661335,19.439332 153.384,19.708 C153.106665,19.976668 152.760002,20.111 152.344,20.111 L150.498,20.111 L150.498,27.157 C150.498,27.5210018 150.593332,27.7853325 150.784,27.95 C150.974668,28.1146675 151.234665,28.197 151.564,28.197 C151.702667,28.197 151.893332,28.1623337 152.136,28.093 C152.344001,28.0063329 152.543332,27.963 152.734,27.963 Z M166.982,16.991 C167.432669,16.991 167.805332,17.1426651 168.1,17.446 C168.394668,17.7493349 168.542,18.1263311 168.542,18.577 L168.542,29.627 C168.542,31.8803446 167.935339,33.5226615 166.722,34.554 C165.508661,35.5853385 163.88801,36.101 161.86,36.101 C161.270664,36.101 160.668336,36.0533338 160.053,35.958 C159.437664,35.8626662 158.939335,35.7370008 158.558,35.581 C157.708662,35.2169982 157.284,34.7143365 157.284,34.073 C157.284,33.9921107 157.295555,33.9035186 157.318667,33.8072224 L157.362,33.657 C157.466001,33.2756648 157.643665,32.9853343 157.895,32.786 C158.146335,32.5866657 158.419332,32.487 158.714,32.487 C158.887334,32.487 159.051999,32.5129997 159.208,32.565 L159.700916,32.767222 C159.746416,32.7855184 159.794444,32.8047777 159.845,32.825 C160.148335,32.9463339 160.468998,33.0459996 160.807,33.124 C161.145002,33.2020004 161.495998,33.241 161.86,33.241 C163.090673,33.241 163.99633,32.9766693 164.577,32.448 C165.15767,31.9193307 165.448,31.0136731 165.448,29.731 L165.448,29.471 C164.546662,30.5976723 163.142676,31.161 161.236,31.161 C160.334662,31.161 159.537337,30.9486688 158.844,30.524 C158.150663,30.0993312 157.613335,29.5100038 157.232,28.756 C156.850665,28.0019962 156.66,27.1396715 156.66,26.169 L156.66,18.577 C156.66,18.1263311 156.807332,17.7493349 157.102,17.446 C157.396668,17.1426651 157.769331,16.991 158.22,16.991 C158.670669,16.991 159.043332,17.1426651 159.338,17.446 C159.632668,17.7493349 159.78,18.1263311 159.78,18.577 L159.78,25.233 C159.78,26.3250055 160.018331,27.1093309 160.495,27.586 C160.971669,28.0626691 161.669329,28.301 162.588,28.301 C163.489338,28.301 164.186998,28.0366693 164.681,27.508 C165.175002,26.9793307 165.422,26.2210049 165.422,25.233 L165.422,18.577 C165.422,18.1263311 165.569332,17.7493349 165.864,17.446 C166.158668,17.1426651 166.531331,16.991 166.982,16.991 Z" id="smarty" fill="#F48282"></path>
                <path d="M87.09,46.891 C87.2673342,47.0776676 87.356,47.2876655 87.356,47.521 C87.356,47.7543345 87.2650009,47.9503325 87.083,48.109 C86.9009991,48.2676675 86.7073344,48.347 86.502,48.347 C86.2593321,48.347 86.0540008,48.2536676 85.886,48.067 L83.366,45.407 L82.68,46.037 L82.68,47.507 C82.68,47.7496679 82.6006675,47.9526658 82.442,48.116 C82.2833325,48.2793341 82.0826679,48.361 81.84,48.361 C81.5973321,48.361 81.3966675,48.2793341 81.238,48.116 C81.0793325,47.9526658 81,47.7496679 81,47.507 L81,38.855 C81,38.6123321 81.0793325,38.4093342 81.238,38.246 C81.3966675,38.0826659 81.5973321,38.001 81.84,38.001 C82.0826679,38.001 82.2833325,38.0826659 82.442,38.246 C82.6006675,38.4093342 82.68,38.6123321 82.68,38.855 L82.68,44.035 L85.676,41.137 C85.8533342,40.9596658 86.0586655,40.871 86.292,40.871 C86.4973344,40.871 86.6816659,40.9573325 86.845,41.13 C87.0083342,41.3026675 87.09,41.4776658 87.09,41.655 C87.09,41.8790011 86.9780011,42.088999 86.754,42.285 L84.64,44.231 L87.09,46.891 Z M90.408,47.507 C90.408,47.7496679 90.3286675,47.9526658 90.17,48.116 C90.0113325,48.2793341 89.8106679,48.361 89.568,48.361 C89.3253321,48.361 89.1246675,48.2793341 88.966,48.116 C88.8073325,47.9526658 88.728,47.7496679 88.728,47.507 L88.728,41.725 C88.728,41.4823321 88.8073325,41.2793341 88.966,41.116 C89.1246675,40.9526658 89.3253321,40.871 89.568,40.871 C89.8106679,40.871 90.0113325,40.9526658 90.17,41.116 C90.3286675,41.2793341 90.408,41.4823321 90.408,41.725 L90.408,47.507 Z M89.554,39.961 C89.2366651,39.961 89.0126673,39.9096672 88.882,39.807 C88.7513327,39.7043328 88.686,39.5223346 88.686,39.261 L88.686,38.995 C88.686,38.7336654 88.7559993,38.5516672 88.896,38.449 C89.0360007,38.3463328 89.2599985,38.295 89.568,38.295 C89.8946683,38.295 90.1233327,38.3463328 90.254,38.449 C90.3846673,38.5516672 90.45,38.7336654 90.45,38.995 L90.45,39.261 C90.45,39.531668 90.382334,39.7159995 90.247,39.814 C90.111666,39.9120005 89.8806683,39.961 89.554,39.961 Z M96.134,40.731 C97.0860048,40.731 97.7439982,41.0133305 98.108,41.578 C98.4720018,42.1426695 98.654,42.9243283 98.654,43.923 L98.654,47.507 C98.654,47.7496679 98.5746675,47.9526658 98.416,48.116 C98.2573325,48.2793341 98.0566679,48.361 97.814,48.361 C97.5713321,48.361 97.3706675,48.2793341 97.212,48.116 C97.0533325,47.9526658 96.974,47.7496679 96.974,47.507 L96.974,43.923 C96.974,43.4096641 96.8666677,43.0060015 96.652,42.712 C96.4373323,42.4179985 96.0686693,42.271 95.546,42.271 C95.004664,42.271 94.5800015,42.4273318 94.272,42.74 C93.9639985,43.0526682 93.81,43.4469976 93.81,43.923 L93.81,47.507 C93.81,47.7496679 93.7306675,47.9526658 93.572,48.116 C93.4133325,48.2793341 93.2126679,48.361 92.97,48.361 C92.7273321,48.361 92.5266675,48.2793341 92.368,48.116 C92.2093325,47.9526658 92.13,47.7496679 92.13,47.507 L92.13,41.725 C92.13,41.4823321 92.2093325,41.2793341 92.368,41.116 C92.5266675,40.9526658 92.7273321,40.871 92.97,40.871 C93.2126679,40.871 93.4133325,40.9526658 93.572,41.116 C93.7306675,41.2793341 93.81,41.4823321 93.81,41.725 L93.81,41.963 C94.0620013,41.6269983 94.390998,41.3376679 94.797,41.095 C95.203002,40.8523321 95.6486642,40.731 96.134,40.731 Z M106.536,38.001 C106.778668,38.001 106.979333,38.0803325 107.138,38.239 C107.296667,38.3976675 107.376,38.6029987 107.376,38.855 L107.376,47.507 C107.376,47.7496679 107.296667,47.9526658 107.138,48.116 C106.979333,48.2793341 106.778668,48.361 106.536,48.361 C106.293332,48.361 106.095001,48.2816675 105.941,48.123 C105.786999,47.9643325 105.705333,47.7636679 105.696,47.521 C105.462665,47.791668 105.147669,48.0226657 104.751,48.214 C104.354331,48.4053343 103.936669,48.501 103.498,48.501 C102.853997,48.501 102.270669,48.335335 101.748,48.004 C101.225331,47.672665 100.812335,47.2130029 100.509,46.625 C100.205665,46.0369971 100.054,45.3696704 100.054,44.623 C100.054,43.8763296 100.203332,43.2066696 100.502,42.614 C100.800668,42.0213304 101.208997,41.559335 101.727,41.228 C102.245003,40.896665 102.816664,40.731 103.442,40.731 C103.890002,40.731 104.309998,40.8126658 104.702,40.976 C105.094002,41.1393341 105.425332,41.3469987 105.696,41.599 L105.696,38.855 C105.696,38.6123321 105.775333,38.4093342 105.934,38.246 C106.092667,38.0826659 106.293332,38.001 106.536,38.001 Z M103.708,46.961 C104.31467,46.961 104.809331,46.7393356 105.192,46.296 C105.574669,45.8526645 105.766,45.2950034 105.766,44.623 C105.766,43.9509966 105.574669,43.3910022 105.192,42.943 C104.809331,42.4949978 104.31467,42.271 103.708,42.271 C103.110664,42.271 102.620669,42.4949978 102.238,42.943 C101.855331,43.3910022 101.664,43.9509966 101.664,44.623 C101.664,45.2950034 101.852998,45.8526645 102.231,46.296 C102.609002,46.7393356 103.10133,46.961 103.708,46.961 Z M115.916,44.441 C115.906667,44.6650011 115.818001,44.8469993 115.65,44.987 C115.481999,45.1270007 115.286001,45.197 115.062,45.197 L110.442,45.197 C110.554001,45.7476694 110.810665,46.1793318 111.212,46.492 C111.613335,46.8046682 112.065997,46.961 112.57,46.961 C112.952669,46.961 113.251332,46.9260003 113.466,46.856 C113.680668,46.7859997 113.850999,46.7113337 113.977,46.632 L114.193562,46.4968125 C114.210187,46.4866042 114.224333,46.478 114.236,46.471 C114.404001,46.3869996 114.562666,46.345 114.712,46.345 C114.908001,46.345 115.075999,46.4149993 115.216,46.555 C115.356001,46.6950007 115.426,46.8583324 115.426,47.045 C115.426,47.2970013 115.295335,47.5256656 115.034,47.731 C114.772665,47.9456677 114.422669,48.1276659 113.984,48.277 C113.545331,48.4263341 113.102002,48.501 112.654,48.501 C111.869996,48.501 111.186336,48.3376683 110.603,48.011 C110.019664,47.6843317 109.569335,47.2340029 109.252,46.66 C108.934665,46.0859971 108.776,45.4396703 108.776,44.721 C108.776,43.9183293 108.943998,43.2136697 109.28,42.607 C109.616002,42.0003303 110.059331,41.5360016 110.61,41.214 C111.160669,40.8919984 111.748664,40.731 112.374,40.731 C112.990003,40.731 113.570997,40.8989983 114.117,41.235 C114.663003,41.5710017 115.099332,42.0236638 115.426,42.593 C115.752668,43.1623362 115.916,43.77833 115.916,44.441 Z M112.374,42.271 C111.291328,42.271 110.652001,42.7796616 110.456,43.797 L114.124,43.797 L114.124,43.699 C114.086666,43.306998 113.895335,42.9710014 113.55,42.691 C113.204665,42.4109986 112.812669,42.271 112.374,42.271 Z M121.208,40.731 C121.488001,40.731 121.723666,40.8103325 121.915,40.969 C122.106334,41.1276675 122.202,41.3143323 122.202,41.529 C122.202,41.8183348 122.127334,42.0353326 121.978,42.18 C121.828666,42.3246674 121.651334,42.397 121.446,42.397 C121.340999,42.397 121.2255,42.3786252 121.0995,42.3418751 L120.781,42.243 L120.781,42.243 C120.683,42.2149999 120.578001,42.201 120.466,42.201 C120.223332,42.201 119.990001,42.2756659 119.766,42.425 C119.541999,42.5743341 119.357667,42.8006651 119.213,43.104 C119.068333,43.4073349 118.996,43.7689979 118.996,44.189 L118.996,47.507 C118.996,47.7496679 118.916667,47.9526658 118.758,48.116 C118.599333,48.2793341 118.398668,48.361 118.156,48.361 C117.913332,48.361 117.712667,48.2793341 117.554,48.116 C117.395333,47.9526658 117.316,47.7496679 117.316,47.507 L117.316,41.725 C117.316,41.4823321 117.395333,41.2793341 117.554,41.116 C117.712667,40.9526658 117.913332,40.871 118.156,40.871 C118.398668,40.871 118.599333,40.9526658 118.758,41.116 C118.916667,41.2793341 118.996,41.4823321 118.996,41.725 L118.996,41.907 C119.210668,41.5243314 119.518665,41.2326677 119.92,41.032 C120.321335,40.8313323 120.750664,40.731 121.208,40.731 Z M129.594,40.731 C129.836668,40.731 130.037333,40.8103325 130.196,40.969 C130.354667,41.1276675 130.434,41.3329987 130.434,41.585 L130.434,47.815 C130.434,48.9536724 130.08167,49.7959973 129.377,50.342 C128.67233,50.8880027 127.778672,51.161 126.696,51.161 C126.415999,51.161 126.031002,51.1143338 125.541,51.021 L125.155856,50.9409999 C124.863952,50.8743333 124.644667,50.807667 124.498,50.741 C124.040664,50.544999 123.812,50.2743351 123.812,49.929 C123.812,49.8854442 123.818222,49.8377408 123.830667,49.785889 L123.854,49.705 C123.91,49.4996656 124.005666,49.3433339 124.141,49.236 C124.276334,49.1286661 124.423333,49.075 124.582,49.075 C124.644223,49.075 124.70437,49.0812222 124.762444,49.0936666 L124.848,49.117 C124.885334,49.1263334 125.116331,49.2126659 125.541,49.376 C125.965669,49.5393341 126.350665,49.621 126.696,49.621 C127.38667,49.621 127.902332,49.4833347 128.243,49.208 C128.583668,48.9326653 128.754,48.5430025 128.754,48.039 L128.754,47.367 C128.548666,47.6563348 128.238335,47.9176655 127.823,48.151 C127.407665,48.3843345 126.962002,48.501 126.486,48.501 C125.832663,48.501 125.237669,48.335335 124.701,48.004 C124.164331,47.672665 123.742002,47.2130029 123.434,46.625 C123.125998,46.0369971 122.972,45.3696704 122.972,44.623 C122.972,43.8763296 123.123665,43.2066696 123.427,42.614 C123.730335,42.0213304 124.145664,41.559335 124.673,41.228 C125.200336,40.896665 125.785997,40.731 126.43,40.731 C126.906002,40.731 127.349331,40.828999 127.76,41.025 C128.170669,41.221001 128.501999,41.4589986 128.754,41.739 L128.754,41.585 C128.754,41.3423321 128.833333,41.1393341 128.992,40.976 C129.150667,40.8126658 129.351332,40.731 129.594,40.731 Z M126.696,46.961 C127.321336,46.961 127.832331,46.7393356 128.229,46.296 C128.625669,45.8526645 128.824,45.2950034 128.824,44.623 C128.824,43.9509966 128.625669,43.3910022 128.229,42.943 C127.832331,42.4949978 127.321336,42.271 126.696,42.271 C126.070664,42.271 125.562002,42.4949978 125.17,42.943 C124.777998,43.3910022 124.582,43.9509966 124.582,44.623 C124.582,45.2950034 124.777998,45.8526645 125.17,46.296 C125.562002,46.7393356 126.070664,46.961 126.696,46.961 Z M138.316,40.731 C138.558668,40.731 138.759333,40.8103325 138.918,40.969 C139.076667,41.1276675 139.156,41.3329987 139.156,41.585 L139.156,47.507 C139.156,47.7496679 139.076667,47.9526658 138.918,48.116 C138.759333,48.2793341 138.558668,48.361 138.316,48.361 C138.073332,48.361 137.875001,48.2816675 137.721,48.123 C137.566999,47.9643325 137.485333,47.7636679 137.476,47.521 C137.242665,47.791668 136.927669,48.0226657 136.531,48.214 C136.134331,48.4053343 135.716669,48.501 135.278,48.501 C134.633997,48.501 134.050669,48.335335 133.528,48.004 C133.005331,47.672665 132.592335,47.2130029 132.289,46.625 C131.985665,46.0369971 131.834,45.3696704 131.834,44.623 C131.834,43.8763296 131.983332,43.2066696 132.282,42.614 C132.580668,42.0213304 132.988997,41.559335 133.507,41.228 C134.025003,40.896665 134.596664,40.731 135.222,40.731 C135.670002,40.731 136.089998,40.8126658 136.482,40.976 C136.874002,41.1393341 137.205332,41.3469987 137.476,41.599 L137.476,41.585 C137.476,41.3423321 137.555333,41.1393341 137.714,40.976 C137.872667,40.8126658 138.073332,40.731 138.316,40.731 Z M135.488,46.961 C136.09467,46.961 136.589331,46.7393356 136.972,46.296 C137.354669,45.8526645 137.546,45.2950034 137.546,44.623 C137.546,43.9509966 137.354669,43.3910022 136.972,42.943 C136.589331,42.4949978 136.09467,42.271 135.488,42.271 C134.890664,42.271 134.400669,42.4949978 134.018,42.943 C133.635331,43.3910022 133.444,43.9509966 133.444,44.623 C133.444,45.2950034 133.632998,45.8526645 134.011,46.296 C134.389002,46.7393356 134.88133,46.961 135.488,46.961 Z M144.868,40.731 C145.148001,40.731 145.383666,40.8103325 145.575,40.969 C145.766334,41.1276675 145.862,41.3143323 145.862,41.529 C145.862,41.8183348 145.787334,42.0353326 145.638,42.18 C145.488666,42.3246674 145.311334,42.397 145.106,42.397 C145.000999,42.397 144.8855,42.3786252 144.7595,42.3418751 L144.441,42.243 L144.441,42.243 C144.343,42.2149999 144.238001,42.201 144.126,42.201 C143.883332,42.201 143.650001,42.2756659 143.426,42.425 C143.201999,42.5743341 143.017667,42.8006651 142.873,43.104 C142.728333,43.4073349 142.656,43.7689979 142.656,44.189 L142.656,47.507 C142.656,47.7496679 142.576667,47.9526658 142.418,48.116 C142.259333,48.2793341 142.058668,48.361 141.816,48.361 C141.573332,48.361 141.372667,48.2793341 141.214,48.116 C141.055333,47.9526658 140.976,47.7496679 140.976,47.507 L140.976,41.725 C140.976,41.4823321 141.055333,41.2793341 141.214,41.116 C141.372667,40.9526658 141.573332,40.871 141.816,40.871 C142.058668,40.871 142.259333,40.9526658 142.418,41.116 C142.576667,41.2793341 142.656,41.4823321 142.656,41.725 L142.656,41.907 C142.870668,41.5243314 143.178665,41.2326677 143.58,41.032 C143.981335,40.8313323 144.410664,40.731 144.868,40.731 Z M150.664,46.779 C150.794667,46.779 150.913666,46.8419994 151.021,46.968 C151.128334,47.0940006 151.182,47.2596656 151.182,47.465 C151.182,47.7170013 151.044335,47.9293325 150.769,48.102 C150.493665,48.2746675 150.183335,48.361 149.838,48.361 C149.25933,48.361 148.771669,48.2373346 148.375,47.99 C147.978331,47.7426654 147.78,47.2176707 147.78,46.415 L147.78,42.551 L147.136,42.551 C146.911999,42.551 146.725334,42.4763341 146.576,42.327 C146.426666,42.1776659 146.352,41.9910011 146.352,41.767 C146.352,41.5523323 146.426666,41.3726674 146.576,41.228 C146.725334,41.0833326 146.911999,41.011 147.136,41.011 L147.78,41.011 L147.78,40.115 C147.78,39.8723321 147.861666,39.6693341 148.025,39.506 C148.188334,39.3426658 148.391332,39.261 148.634,39.261 C148.867335,39.261 149.063333,39.3426658 149.222,39.506 C149.380667,39.6693341 149.46,39.8723321 149.46,40.115 L149.46,41.011 L150.454,41.011 C150.678001,41.011 150.864666,41.0856659 151.014,41.235 C151.163334,41.3843341 151.238,41.5709989 151.238,41.795 C151.238,42.0096677 151.163334,42.1893326 151.014,42.334 C150.864666,42.4786674 150.678001,42.551 150.454,42.551 L149.46,42.551 L149.46,46.345 C149.46,46.541001 149.511333,46.6833329 149.614,46.772 C149.716667,46.8606671 149.856666,46.905 150.034,46.905 C150.108667,46.905 150.211333,46.8863335 150.342,46.849 C150.454001,46.8023331 150.561333,46.779 150.664,46.779 Z M159.498,44.441 C159.488667,44.6650011 159.400001,44.8469993 159.232,44.987 C159.063999,45.1270007 158.868001,45.197 158.644,45.197 L154.024,45.197 C154.136001,45.7476694 154.392665,46.1793318 154.794,46.492 C155.195335,46.8046682 155.647997,46.961 156.152,46.961 C156.534669,46.961 156.833332,46.9260003 157.048,46.856 C157.262668,46.7859997 157.432999,46.7113337 157.559,46.632 L157.775562,46.4968125 C157.792187,46.4866042 157.806333,46.478 157.818,46.471 C157.986001,46.3869996 158.144666,46.345 158.294,46.345 C158.490001,46.345 158.657999,46.4149993 158.798,46.555 C158.938001,46.6950007 159.008,46.8583324 159.008,47.045 C159.008,47.2970013 158.877335,47.5256656 158.616,47.731 C158.354665,47.9456677 158.004669,48.1276659 157.566,48.277 C157.127331,48.4263341 156.684002,48.501 156.236,48.501 C155.451996,48.501 154.768336,48.3376683 154.185,48.011 C153.601664,47.6843317 153.151335,47.2340029 152.834,46.66 C152.516665,46.0859971 152.358,45.4396703 152.358,44.721 C152.358,43.9183293 152.525998,43.2136697 152.862,42.607 C153.198002,42.0003303 153.641331,41.5360016 154.192,41.214 C154.742669,40.8919984 155.330664,40.731 155.956,40.731 C156.572003,40.731 157.152997,40.8989983 157.699,41.235 C158.245003,41.5710017 158.681332,42.0236638 159.008,42.593 C159.334668,43.1623362 159.498,43.77833 159.498,44.441 Z M155.956,42.271 C154.873328,42.271 154.234001,42.7796616 154.038,43.797 L157.706,43.797 L157.706,43.699 C157.668666,43.306998 157.477335,42.9710014 157.132,42.691 C156.786665,42.4109986 156.394669,42.271 155.956,42.271 Z M164.902,40.731 C165.854005,40.731 166.511998,41.0133305 166.876,41.578 C167.240002,42.1426695 167.422,42.9243283 167.422,43.923 L167.422,47.507 C167.422,47.7496679 167.342667,47.9526658 167.184,48.116 C167.025333,48.2793341 166.824668,48.361 166.582,48.361 C166.339332,48.361 166.138667,48.2793341 165.98,48.116 C165.821333,47.9526658 165.742,47.7496679 165.742,47.507 L165.742,43.923 C165.742,43.4096641 165.634668,43.0060015 165.42,42.712 C165.205332,42.4179985 164.836669,42.271 164.314,42.271 C163.772664,42.271 163.348002,42.4273318 163.04,42.74 C162.731998,43.0526682 162.578,43.4469976 162.578,43.923 L162.578,47.507 C162.578,47.7496679 162.498667,47.9526658 162.34,48.116 C162.181333,48.2793341 161.980668,48.361 161.738,48.361 C161.495332,48.361 161.294667,48.2793341 161.136,48.116 C160.977333,47.9526658 160.898,47.7496679 160.898,47.507 L160.898,41.725 C160.898,41.4823321 160.977333,41.2793341 161.136,41.116 C161.294667,40.9526658 161.495332,40.871 161.738,40.871 C161.980668,40.871 162.181333,40.9526658 162.34,41.116 C162.498667,41.2793341 162.578,41.4823321 162.578,41.725 L162.578,41.963 C162.830001,41.6269983 163.158998,41.3376679 163.565,41.095 C163.971002,40.8523321 164.416664,40.731 164.902,40.731 Z" id="kindergarten" fill="#F48282"></path>
            </g>
        </g>
    </g>
</svg>